<mxfile host="app.diagrams.net" modified="2023-06-25T06:33:51.903Z" agent="Mozilla/5.0 (Windows NT 10.0; Win64; x64) AppleWebKit/537.36 (KHTML, like Gecko) Chrome/114.0.0.0 Safari/537.36" etag="e1yVCMxWcA1AWkVF_f1V" version="21.5.0" type="github">
  <diagram name="第 1 页" id="qDboG9uKb9qT4xQFygIt">
    <mxGraphModel dx="1434" dy="755" grid="1" gridSize="10" guides="1" tooltips="1" connect="1" arrows="1" fold="1" page="1" pageScale="1" pageWidth="827" pageHeight="1169" math="0" shadow="0">
      <root>
        <mxCell id="0" />
        <mxCell id="1" parent="0" />
        <mxCell id="fpvO4Oh8xb2HETWLyr-7-1" value="" style="image;html=1;image=img/lib/clip_art/people/Suit_Man_128x128.png" vertex="1" parent="1">
          <mxGeometry x="40" y="60" width="80" height="80" as="geometry" />
        </mxCell>
        <mxCell id="fpvO4Oh8xb2HETWLyr-7-2" value="" style="image;html=1;image=img/lib/clip_art/people/Suit_Man_128x128.png" vertex="1" parent="1">
          <mxGeometry x="40" y="180" width="80" height="80" as="geometry" />
        </mxCell>
        <mxCell id="fpvO4Oh8xb2HETWLyr-7-3" value="" style="image;html=1;image=img/lib/clip_art/computers/iMac_128x128.png;rotation=0;flipH=1;" vertex="1" parent="1">
          <mxGeometry x="150" y="60" width="80" height="80" as="geometry" />
        </mxCell>
        <mxCell id="fpvO4Oh8xb2HETWLyr-7-4" value="" style="image;html=1;image=img/lib/clip_art/computers/iMac_128x128.png;rotation=0;flipH=1;" vertex="1" parent="1">
          <mxGeometry x="150" y="180" width="80" height="80" as="geometry" />
        </mxCell>
        <mxCell id="fpvO4Oh8xb2HETWLyr-7-5" value="" style="image;html=1;image=img/lib/clip_art/networking/Cloud_128x128.png" vertex="1" parent="1">
          <mxGeometry x="330" y="120" width="80" height="80" as="geometry" />
        </mxCell>
        <mxCell id="fpvO4Oh8xb2HETWLyr-7-8" value="" style="shape=flexArrow;endArrow=classic;html=1;rounded=0;exitX=0;exitY=0.388;exitDx=0;exitDy=0;exitPerimeter=0;" edge="1" parent="1" source="fpvO4Oh8xb2HETWLyr-7-3">
          <mxGeometry width="50" height="50" relative="1" as="geometry">
            <mxPoint x="250" y="120" as="sourcePoint" />
            <mxPoint x="320" y="160" as="targetPoint" />
          </mxGeometry>
        </mxCell>
        <mxCell id="fpvO4Oh8xb2HETWLyr-7-9" value="" style="shape=flexArrow;endArrow=classic;html=1;rounded=0;exitX=1;exitY=0.5;exitDx=0;exitDy=0;" edge="1" parent="1" source="fpvO4Oh8xb2HETWLyr-7-4">
          <mxGeometry width="50" height="50" relative="1" as="geometry">
            <mxPoint x="270" y="210" as="sourcePoint" />
            <mxPoint x="320" y="160" as="targetPoint" />
          </mxGeometry>
        </mxCell>
        <mxCell id="fpvO4Oh8xb2HETWLyr-7-10" value="&lt;font style=&quot;font-size: 22px;&quot;&gt;Internet&lt;/font&gt;" style="rounded=0;whiteSpace=wrap;html=1;" vertex="1" parent="1">
          <mxGeometry x="310" y="210" width="120" height="40" as="geometry" />
        </mxCell>
        <mxCell id="fpvO4Oh8xb2HETWLyr-7-12" value="&lt;font style=&quot;font-size: 22px;&quot;&gt;用户&lt;/font&gt;" style="rounded=0;whiteSpace=wrap;html=1;" vertex="1" parent="1">
          <mxGeometry x="30" y="140" width="120" height="40" as="geometry" />
        </mxCell>
      </root>
    </mxGraphModel>
  </diagram>
</mxfile>
